<?xml version="1.0" encoding="UTF-8"?>
<svg width="800" height="600" viewBox="0 0 800 600" fill="none" xmlns="http://www.w3.org/2000/svg">
  <!-- Background Elements -->
  <circle cx="400" cy="300" r="250" fill="#FEF3C7" opacity="0.3"/>
  <circle cx="400" cy="300" r="200" fill="#1E3A8A" opacity="0.1"/>
  
  <!-- Main Device Frame -->
  <rect x="250" y="150" width="300" height="200" rx="20" fill="#FFFFFF" stroke="#1E3A8A" stroke-width="4"/>
  
  <!-- Screen Content -->
  <rect x="270" y="170" width="260" height="160" rx="10" fill="#F8FAFC"/>
  
  <!-- Data Visualization Elements -->
  <path d="M290 250 L320 220 L350 240 L380 200 L410 230" stroke="#F59E0B" stroke-width="3" fill="none"/>
  <circle cx="320" cy="220" r="4" fill="#F59E0B"/>
  <circle cx="350" cy="240" r="4" fill="#F59E0B"/>
  <circle cx="380" cy="200" r="4" fill="#F59E0B"/>
  <circle cx="410" cy="230" r="4" fill="#F59E0B"/>
  
  <!-- Icons and UI Elements -->
  <rect x="290" y="280" width="40" height="40" rx="8" fill="#1E3A8A" opacity="0.1"/>
  <rect x="340" y="280" width="40" height="40" rx="8" fill="#1E3A8A" opacity="0.1"/>
  <rect x="390" y="280" width="40" height="40" rx="8" fill="#1E3A8A" opacity="0.1"/>
  
  <!-- Decorative Elements -->
  <circle cx="200" cy="400" r="30" fill="#F59E0B" opacity="0.2"/>
  <circle cx="600" cy="200" r="40" fill="#1E3A8A" opacity="0.2"/>
  <circle cx="500" cy="450" r="25" fill="#F59E0B" opacity="0.2"/>
  
  <!-- Connection Lines -->
  <path d="M200 400 L300 300" stroke="#1E3A8A" stroke-width="2" stroke-dasharray="4 4" opacity="0.3"/>
  <path d="M600 200 L500 300" stroke="#1E3A8A" stroke-width="2" stroke-dasharray="4 4" opacity="0.3"/>
  <path d="M500 450 L400 350" stroke="#1E3A8A" stroke-width="2" stroke-dasharray="4 4" opacity="0.3"/>
</svg> 
 